Patient4_TMGait_0pt6_02_right_18_EMG.mot
version=1
nRows=13
nColumns=33
inDegrees=no
endheader
time	1LAddLong	2LGlutMax	3LGlutMed	4LIliopsoas	5LSemiMemb	6LBicFemLong	7LRecFem	8LVastMed	9LVastLat	10LGasMed	11LTibAnt	12lTibPost	13LPeroneusLong	14LSol	15LExtDigLong	16LFlexDigLong	17RAddLong	18RGlutMax	19RGlutMed	20RIliopsoas	21RSemiMemb	22RBicFemLong	23RRecFem	24RVastMed	25RVastLat	26RGasMed	27RTibAnt	28RTibPost	29RPeroneusLong	30RSol	31RExtDigLong	32RFlexDigLong
21.942	0.001526	0.99243	0.23086	-0.000916	0.00351	-0.039978	0.004883	0.015106	0.02121	0.036621	-0.014038	0.002594	-0.090637	0.11704	0.2095	-0.005951	-0.18341	0.07431	0.75378	-0.072479	0.392	-0.021973	0.1033	0.31052	-0.25818	-0.012512	0.1561	0.005341	-0.80688	0.068054	-0.004272	-0.016022
21.943	-0.002899	1.0745	0.19089	-0.046844	0.006561	-0.031738	0.10223	0.019531	0.01709	0.038605	-0.10346	-0.001678	-0.10986	0.089722	0.023804	-0.00412	-0.19455	0.052643	0.616	-0.10819	0.30807	-0.38055	0.12741	0.30624	-0.38666	-0.027466	0.37872	0.00885	0.15991	0.18601	-0.003204	-0.025024
21.944	-0.001984	1.1478	0.15564	-0.010681	0.003662	-0.024719	0.16357	0.013733	0.023499	0.040741	-0.063782	0.003967	-0.088959	0.041962	-0.094147	-0.011292	-0.15671	-0.002747	-0.33066	-0.081329	0.19089	-0.5748	0.21469	0.43366	-0.40756	-0.019989	0.45197	0.012512	1.5477	0.16434	-0.003815	-0.030823
21.945	-0.007019	1.2221	0.14358	-0.007782	0.005035	-0.026245	0.18768	0.001678	0.033417	0.027618	-0.079498	0.001221	-0.025177	-0.063477	0.38818	-0.0177	-0.076294	-0.036011	-0.095062	0.002441	0.083313	-0.52917	0.36224	0.46402	-0.20035	-0.012665	0.14557	0.009308	1.3931	-0.009613	-0.000153	-0.018005
21.946	-0.004425	1.2569	0.14984	-0.009155	0.002747	-0.01236	0.20035	-0.008087	0.038147	0.027161	-0.035095	-0.00412	-0.045166	-0.088043	-0.26382	-0.005035	-0.037689	-0.10346	0.073395	-0.010834	0.030365	-0.45029	0.39841	0.33341	0.006256	-0.016785	0.18829	0.013733	-0.35996	-0.085449	-0.002441	-0.013428
21.947	-0.003357	1.2848	0.15106	-0.027924	0.001373	-0.017242	0.18234	-0.007629	0.041962	0.049591	0.036163	0	-0.10147	-0.071411	-0.33752	-0.006256	-0.001526	-0.23819	-0.40924	0.045013	-0.057983	-0.47623	0.27115	0.22629	0.18524	-0.030365	0.35553	0.010071	-1.1818	-0.076904	-0.003357	-0.007172
21.948	0.006561	1.3611	0.11261	0.012665	0.014954	-0.014343	0.14862	-0.005493	0.041809	0.048676	0.090332	-0.007324	-0.1004	0.017395	-0.1886	-0.007629	0.031128	-0.33768	-0.16571	-0.089417	-0.16251	-0.31754	0.30624	0.077362	0.086365	-0.021362	0.38071	0.009003	-0.66773	-0.15747	0.000153	-0.002747
21.949	-0.054779	1.3579	0.074463	0.018463	0.002136	-0.010376	0.11551	-0.007019	0.036621	0.046692	0.069427	-0.000763	-0.093842	0.10056	-0.089874	-0.00946	0.044708	-0.43274	-0.58701	-0.10864	-0.22339	-0.12024	0.29938	0.063782	0.04364	-0.010223	-0.058441	0.006409	-1.2372	0.057678	-0.000458	-0.007935
21.95	-0.053864	1.3623	0.06897	0.042877	0.007782	-0.014801	0.080414	-0.005951	0.043793	0.028381	-0.066223	-0.009155	-0.074615	0.1648	-0.036469	-0.022583	-0.016022	-0.47836	-1.1047	0.11108	0.038147	0.023041	0.17609	0.087585	0.035095	-0.0177	-0.26962	0.001678	-0.43701	0.34485	-0.003662	-0.008698
21.951	-0.017548	1.387	0.10223	0.039825	0.013733	-0.01297	0.094604	-0.005951	0.049896	0.034943	-0.035553	-0.002899	-0.070648	0.12116	-0.040588	-0.001373	-0.036774	-0.63232	-1.0001	0.23392	0.098724	0.10025	0.15182	0.14618	0.050201	-0.004425	-0.12177	0.006104	-1.3487	0.47028	0.003815	-0.003967
21.952	0.003357	1.4149	0.08606	-0.020752	0.000305	-0.002899	0.10727	-0.014954	0.068359	0.059662	-0.075226	-0.00412	-0.065918	0.089111	0.049438	-0.021362	-0.010834	-0.63568	-0.87341	0.19516	0.030518	-0.14023	0.19913	0.11307	0.14786	-0.005188	0.16922	0.005951	-1.4798	0.23132	0.000458	0.000305
21.953	-0.002899	1.4305	0.066528	-0.050507	0.009308	-0.01236	0.18936	-0.012817	0.053558	0.059509	-0.097809	-0.000153	-0.074921	0.11505	0.11505	-0.013733	0.028687	-0.72952	-0.69702	0.17395	0.38055	-0.30319	0.2858	0.00351	0.060577	0.007782	0.39459	0.010529	-0.80963	0.06546	-0.00061	-0.001373
21.954	-0.005493	1.3826	0.02655	-0.015411	0.010681	-0.043182	0.27603	-0.007019	0.046387	0.059357	-0.13916	-0.00412	-0.05127	0.15396	0.23697	-0.007172	0.020752	-0.74524	-0.55313	0.084686	0.23392	-0.3241	0.36972	-0.12741	-0.13306	0.015411	0.23178	0.011292	1.3724	-0.045624	-0.003357	0.014343
